<?xml version="1.0" standalone="no"?>
<!DOCTYPE svg PUBLIC "-//W3C//DTD SVG 20010904//EN"
 "http://www.w3.org/TR/2001/REC-SVG-20010904/DTD/svg10.dtd">
<svg version="1.0" xmlns="http://www.w3.org/2000/svg"
 width="500.000000pt" height="500.000000pt" viewBox="0 0 500.000000 500.000000"
 preserveAspectRatio="xMidYMid meet">

<g transform="translate(0.000000,500.000000) scale(0.100000,-0.100000)"
fill="#000000" stroke="none">
<path d="M0 2500 l0 -2500 2500 0 2500 0 0 2500 0 2500 -2500 0 -2500 0 0
-2500z m2584 885 c58 -10 132 -51 180 -99 46 -49 657 -1092 693 -1185 68 -175
-16 -376 -192 -458 -53 -24 -72 -28 -155 -28 -84 0 -102 3 -153 29 -101 49
-132 91 -369 501 -121 208 -222 391 -225 406 -7 37 12 68 52 85 38 15 69 8 97
-22 9 -11 111 -183 228 -384 116 -201 221 -376 233 -389 82 -89 230 -75 302
27 25 37 30 53 30 105 l0 62 -319 550 c-175 303 -328 561 -340 573 -71 79
-220 82 -287 6 -15 -17 -607 -1032 -646 -1107 -23 -45 -14 -144 17 -191 29
-42 108 -86 155 -86 151 0 240 149 176 292 -20 43 -20 50 -8 81 18 41 66 65
105 51 60 -21 108 -143 100 -254 -20 -279 -343 -435 -574 -277 -61 42 -119
116 -141 182 -24 69 -22 185 4 250 37 91 638 1117 687 1172 52 58 128 100 203
112 48 9 72 8 147 -4z"/>
</g>
</svg>
